<svg version="1.0" xmlns="http://www.w3.org/2000/svg"
  viewBox="0 0 1328.000000 283.000000"
 preserveAspectRatio="xMidYMid meet">
<g transform="translate(0.000000,283.000000) scale(0.100000,-0.100000)"
fill="#2C2420" stroke="none">
<path d="M11643 2078 c-132 -8 -285 -41 -381 -84 -87 -38 -201 -120 -261 -188 -48 -54 -121 -186 -126 -226 -1 -8 -4 -22 -8 -30 -16 -40 -27 -130 -27 -218 1 -83 7 -132 35 -246 10 -43 65 -145 109 -203 109 -144 325 -254 560 -283 156 -20 417 -8 541 24 119 31 270 103 327 157 23 22 45 39 48 39 10 0 87 104 118 162 57 102 77 194 77 353 -1 101 -6 158 -18 205 -101 375 -462 570 -994 538z m282 -263 c180 -37 292 -108 369 -233 82 -132 72 -421 -18 -531 -110 -136 -247 -196 -473 -208 -170 -8 -316 17 -433 77 -55 28 -161 134 -184 185 -64 138 -61 338 6 469 44 86 156 174 270 212 136 45 328 57 463 29z"/>
<path d="M9565 2070 c-228 -36 -404 -121 -525 -252 -56 -61 -120 -164 -120 -194 0 -13 -4 -26 -10 -29 -30 -18 -53 -226 -39 -358 33 -321 232 -529 589 -618 110 -27 389 -37 523 -19 112 15 265 64 343 111 71 42 162 131 189 184 11 22 23 42 27 45 10 8 45 119 50 156 l3 29 -142 3 -141 3 -24 -48 c-78 -158 -258 -245 -508 -245 -382 0 -611 181 -611 482 0 110 7 150 41 225 26 56 106 163 123 164 4 1 26 13 49 27 178 113 547 126 730 27 65 -36 139 -111 169 -172 14 -29 33 -53 44 -56 11 -3 76 -4 145 -3 l125 3 -3 30 c-4 43 -31 122 -60 180 -48 95 -224 242 -307 257 -11 1 -23 7 -26 12 -4 4 -49 19 -100 33 -81 22 -120 25 -284 28 -104 2 -217 0 -250 -5z"/>
<path d="M525 2041 c-4 -8 158 -408 252 -621 11 -25 41 -94 66 -155 25 -60 97 -231 160 -380 l114 -270 177 -2 176 -2 14 27 c7 15 32 79 56 142 23 63 50 133 60 155 25 57 162 414 164 428 1 7 5 17 8 23 4 6 35 82 69 170 33 87 64 165 69 173 7 13 26 -31 177 -424 235 -610 262 -678 275 -687 17 -10 329 -10 345 0 7 4 39 73 72 152 33 80 74 179 91 220 17 41 47 111 65 155 18 44 85 206 150 360 64 154 139 334 167 400 27 66 52 126 55 133 4 9 -30 12 -151 12 -138 0 -156 -2 -165 -17 -5 -10 -71 -171 -146 -358 -75 -187 -175 -434 -222 -550 -46 -115 -87 -212 -90 -215 -7 -7 -24 27 -54 110 -15 41 -32 89 -40 105 -7 17 -13 32 -13 35 -3 10 -39 105 -54 140 -8 19 -16 40 -18 45 -4 16 -84 227 -99 260 -7 17 -31 80 -53 140 -77 208 -106 280 -119 293 -9 9 -55 12 -178 12 -91 -1 -163 -5 -160 -10 3 -5 1 -10 -3 -12 -5 -1 -21 -37 -36 -78 -16 -41 -36 -95 -46 -120 -9 -25 -63 -166 -120 -315 -56 -148 -111 -289 -121 -312 -11 -24 -19 -48 -19 -55 0 -6 -9 -30 -19 -52 -10 -23 -31 -74 -46 -113 -15 -40 -30 -73 -35 -73 -4 0 -31 60 -60 133 -75 188 -248 614 -264 651 -8 17 -42 103 -77 191 l-64 160 -152 3 c-91 1 -154 -1 -158 -7z"/>
<path d="M3854 1953 c-26 -54 -61 -129 -79 -168 -18 -38 -51 -109 -73 -156 -49 -104 -114 -242 -152 -324 -16 -33 -93 -198 -172 -366 -79 -168 -142 -311 -140 -317 3 -9 46 -12 151 -12 l148 0 50 108 c28 59 61 131 73 160 l23 52 380 -2 381 -3 67 -149 c37 -81 73 -152 80 -157 8 -5 78 -9 157 -9 115 0 142 3 142 14 0 15 -27 77 -110 251 -29 61 -72 151 -95 200 -23 50 -89 187 -145 305 -56 118 -117 247 -135 285 -18 39 -67 141 -108 228 l-76 157 -161 0 -161 0 -45 -97z m345 -493 c67 -146 121 -271 121 -277 0 -10 -59 -13 -260 -13 -143 0 -260 4 -260 8 0 5 39 94 86 198 48 104 87 194 89 199 1 6 20 47 41 92 30 64 42 79 51 70 6 -7 66 -131 132 -277z"/>
<path d="M4800 2037 c0 -7 35 -66 78 -133 42 -66 106 -166 142 -223 36 -57 73 -112 83 -122 9 -11 17 -23 17 -27 0 -5 35 -62 78 -128 43 -65 108 -167 145 -225 l67 -106 0 -219 c0 -158 3 -223 12 -232 13 -13 255 -17 275 -4 9 5 13 74 15 245 2 156 7 240 14 245 15 10 194 286 194 300 0 5 4 12 8 14 10 4 172 256 172 268 0 4 4 10 9 12 16 6 219 333 212 341 -4 4 -79 6 -166 5 l-159 -3 -68 -110 c-93 -151 -128 -213 -128 -224 0 -5 -4 -11 -8 -13 -5 -1 -57 -83 -116 -180 -59 -98 -109 -178 -111 -178 -2 0 -24 33 -48 73 -241 389 -381 613 -392 624 -19 18 -325 19 -325 0z"/>
<path d="M6458 1953 c-2 -54 -2 -108 0 -120 l3 -23 305 0 304 0 1 -592 c1 -326 1 -596 0 -600 0 -5 64 -8 144 -8 l145 0 0 600 0 600 305 0 306 0 -3 118 -3 117 -752 3 -752 2 -3 -97z"/>
<path d="M8247 2043 c-4 -3 -7 -327 -7 -720 l0 -714 143 3 142 3 3 718 2 717 -138 0 c-76 0 -142 -3 -145 -7z"/>
</g>
</svg>
