<svg width="180" height="180" viewBox="0 0 180 180" xmlns="http://www.w3.org/2000/svg">
<rect width="180" height="180" rx="36" fill="#C4622D"/>
<g transform="translate(7.38 153) scale(0.18 -0.18)" fill="#FAF8F5">
<path d="M482 329 357 1Q356 -3 346.5 -3.0Q337 -3 335 1L82 542Q69 571 58.5 586.0Q48 601 35.5 607.0Q23 613 3 613Q0 613 0.0 619.0Q0 625 3 625Q16 625 24.5 624.0Q33 623 45.5 622.5Q58 622 79 622Q119 622 143.5 622.5Q168 623 185.0 624.0Q202 625 215 625Q218 625 218.0 619.0Q218 613 215 613Q175 613 167.5 597.5Q160 582 183 532L384 105L344 43L464 355ZM923 625Q925 625 925.0 619.0Q925 613 923 613Q888 613 858.0 586.5Q828 560 807 508L613 1Q612 -3 602.5 -3.0Q593 -3 591 1L338 542Q322 577 306.0 595.0Q290 613 268 613Q265 613 265.0 619.0Q265 625 268 625Q279 625 287.5 624.0Q296 623 306.5 622.5Q317 622 336 622Q384 622 406.5 623.5Q429 625 445 625Q448 625 448.0 619.0Q448 613 445 613Q417 613 416.0 598.5Q415 584 439 532L641 105L601 43L778 505Q796 554 782.0 583.5Q768 613 725 613Q722 613 722.0 619.0Q722 625 725 625Q751 625 774.5 623.5Q798 622 834 622Q862 622 880.0 623.5Q898 625 923 625ZM470 355 530 512Q551 565 548.5 589.0Q546 613 518 613Q515 613 515.0 619.0Q515 625 518 625Q528 625 532.5 624.0Q537 623 547.0 622.5Q557 622 583 622Q609 622 625.0 623.5Q641 625 664 625Q666 625 666.0 619.0Q666 613 664 613Q631 613 604.5 588.5Q578 564 557 508L488 329Z"/>
</g>
</svg>
